<svg width="14" height="14" viewBox="0 0 14 14" fill="none" xmlns="http://www.w3.org/2000/svg">
<path d="M6.98897 9.92839C6.86177 9.92854 6.73601 9.90157 6.62006 9.84927C6.50412 9.79696 6.40067 9.72053 6.31661 9.62507L2.50138 5.28836C2.38079 5.14465 2.32122 4.95947 2.33539 4.77241C2.34956 4.58535 2.43636 4.41125 2.57723 4.28736C2.71809 4.16346 2.90184 4.09959 3.08918 4.10941C3.27652 4.11923 3.45258 4.20195 3.57972 4.3399L6.91586 8.13218C6.92498 8.14259 6.93623 8.15093 6.94883 8.15665C6.96144 8.16236 6.97512 8.16532 6.98897 8.16532C7.00281 8.16532 7.01649 8.16236 7.0291 8.15665C7.04171 8.15093 7.05295 8.14259 7.06207 8.13218L10.3982 4.3399C10.4597 4.26657 10.5353 4.20627 10.6205 4.16257C10.7057 4.11886 10.7987 4.09262 10.8942 4.08539C10.9896 4.07815 11.0855 4.09007 11.1763 4.12045C11.2671 4.15082 11.3509 4.19904 11.4228 4.26226C11.4947 4.32548 11.5532 4.40244 11.5949 4.4886C11.6366 4.57476 11.6607 4.66839 11.6657 4.76399C11.6707 4.85959 11.6565 4.95522 11.6241 5.04527C11.5916 5.13532 11.5414 5.21797 11.4766 5.28836L7.66249 9.62351C7.57829 9.71921 7.47468 9.79589 7.35855 9.84845C7.24242 9.90102 7.11644 9.92827 6.98897 9.92839Z" fill="#6F7B8D"/>
</svg>
